#!OML:ASF H:\LiuWeirdWalks\Patient Classification 1\Patient 1\Session 1\male.ASF
:FULLY-SPECIFIED
:DEGREES
887
root 3.39215 18.1151 17.0384 6.49495 1.92944 -4.60598
lowerback 11.8229 2.24275 -6.5467
upperback 1.11679 2.18417 1.15225
thorax -5.75347 1.2448 4.54985
lowerneck -20.507 -2.71638 1.85219
upperneck 14.9272 -3.57385 -3.39907
head 7.87249 -1.94167 -1.88161
rclavicle 2.42517e-014 -1.43125e-014
rhumerus -27.7804 -36.8564 -10.5622
rradius 31.3379
rwrist -1.52345
rhand -21.9006 -2.4003
rfingers 7.12502
rthumb 4.50471 -32.3324
lclavicle 2.42517e-014 -1.43125e-014
lhumerus -9.61103 36.1043 20.7259
lradius 33.4138
lwrist 14.724
lhand -22.1833 -4.74593
lfingers 7.12502
lthumb 4.23181 25.1918
rfemur -25.0697 -12.4927 13.2125
rtibia 36.1988
rfoot -8.01632 -18.2027
rtoes -9.86978
lfemur -6.03856 2.90572 -17.769
ltibia 29.713
lfoot -13.2833 10.8923
ltoes -18.2882
888
root 3.4103 18.1116 17.1057 6.43019 1.99539 -4.30297
lowerback 11.8374 2.23316 -6.43224
upperback 1.15241 2.19758 1.33394
thorax -5.72837 1.24951 4.67635
lowerneck -20.6526 -2.70908 1.90624
upperneck 14.9639 -3.53499 -3.63639
head 7.90494 -1.94544 -1.96861
rclavicle 5.76476e-015 7.15625e-015
rhumerus -27.7566 -37.006 -11.3455
rradius 31.2833
rwrist -1.43128
rhand -21.9161 -2.30574
rfingers 7.12502
rthumb 4.48977 -32.2382
lclavicle 5.76476e-015 7.15625e-015
lhumerus -9.53145 36.2548 20.6135
lradius 33.4562
lwrist 14.7438
lhand -22.044 -5.04929
lfingers 7.12502
lthumb 4.3663 24.8857
rfemur -25.6587 -12.6051 13.169
rtibia 35.6073
rfoot -7.8268 -18.3302
rtoes -9.93467
lfemur -5.48777 2.95261 -18.1268
ltibia 29.2445
lfoot -13.1791 10.758
ltoes -18.404
889
root 3.42818 18.1075 17.1749 6.36153 2.0903 -4.00142
lowerback 11.8398 2.20844 -6.31147
upperback 1.18554 2.19239 1.51517
thorax -5.69656 1.24483 4.80231
lowerneck -20.7448 -2.6907 1.99215
upperneck 14.9766 -3.48902 -3.87979
head 7.91997 -1.94461 -2.06043
rclavicle 2.92213e-014 -6.75868e-015
rhumerus -27.7232 -37.1541 -12.1188
rradius 31.2269
rwrist -1.32463
rhand -21.9256 -2.23226
rfingers 7.12502
rthumb 4.48057 -32.1649
lclavicle 2.92213e-014 -6.75868e-015
lhumerus -9.47779 36.3727 20.4922
lradius 33.4958
lwrist 14.7132
lhand -21.9132 -5.26219
lfingers 7.12502
lthumb 4.49255 24.6702
rfemur -26.2052 -12.733 13.1284
rtibia 34.9661
rfoot -7.63973 -18.4245
rtoes -10.0304
lfemur -4.9163 2.97709 -18.4807
ltibia 28.7536
lfoot -13.0668 10.6384
ltoes -18.5191
890
root 3.4453 18.1033 17.2454 6.29487 2.21192 -3.69425
lowerback 11.8409 2.18369 -6.19018
upperback 1.20846 2.1872 1.69921
thorax -5.67498 1.24078 4.93093
lowerneck -20.7622 -2.67723 2.08857
upperneck 14.9309 -3.45037 -4.13732
head 7.90227 -1.94795 -2.15679
rclavicle 4.31363e-014 3.57812e-015
rhumerus -27.7174 -37.3111 -12.8166
rradius 31.145
rwrist -1.16848
rhand -21.9186 -2.16612
rfingers 7.12502
rthumb 4.48736 -32.0986
lclavicle 4.31363e-014 3.57812e-015
lhumerus -9.46298 36.3303 20.405
lradius 33.6261
lwrist 14.8474
lhand -21.8927 -5.21384
lfingers 7.12502
lthumb 4.51242 24.7181
rfemur -26.7192 -12.8637 13.0828
rtibia 34.2791
rfoot -7.43843 -18.4973
rtoes -10.1297
lfemur -4.33471 2.97848 -18.8379
ltibia 28.2393
lfoot -12.9386 10.5335
ltoes -18.6244
891
root 3.4618 18.0985 17.3175 6.2309 2.35083 -3.38326
lowerback 11.848 2.17024 -6.05396
upperback 1.21127 2.19824 1.88425
thorax -5.67979 1.24575 5.04896
lowerneck -20.7142 -2.69259 2.13723
upperneck 14.8794 -3.44148 -4.36853
head 7.87203 -1.96501 -2.23871
rclavicle 3.05631e-014 5.96354e-015
rhumerus -27.7816 -37.4635 -13.4026
rradius 31.0496
rwrist -0.970154
rhand -21.9087 -2.09693
rfingers 7.12502
rthumb 4.49694 -32.0292
lclavicle 3.05631e-014 5.96354e-015
lhumerus -9.48131 36.0805 20.3678
lradius 33.8483
lwrist 15.1696
lhand -21.961 -4.97883
lfingers 7.12502
lthumb 4.44646 24.9545
rfemur -27.2034 -12.9957 13.0337
rtibia 33.5493
rfoot -7.18689 -18.548
rtoes -10.2525
lfemur -3.74005 2.96548 -19.1967
ltibia 27.7025
lfoot -12.802 10.4396
ltoes -18.6974
892
root 3.47658 18.0937 17.3911 6.18252 2.49713 -3.06418
lowerback 11.8564 2.16608 -5.93385
upperback 1.19764 2.21941 2.07157
thorax -5.705 1.2572 5.17678
lowerneck -20.6518 -2.71502 2.18285
upperneck 14.8042 -3.43949 -4.61247
head 7.83109 -1.98667 -2.3243
rclavicle -1.27719e-014 -2.17669e-014
rhumerus -27.8711 -37.5798 -13.9388
rradius 30.9642
rwrist -0.857268
rhand -21.9454 -2.1104
rfingers 7.12502
rthumb 4.46147 -32.0434
lclavicle -1.27719e-014 -2.17669e-014
lhumerus -9.50755 35.7911 20.3706
lradius 34.0921
lwrist 15.4477
lhand -22.0021 -4.77354
lfingers 7.12502
lthumb 4.40669 25.1606
rfemur -27.6758 -13.0831 12.9739
rtibia 32.7858
rfoot -6.88782 -18.6189
rtoes -10.3523
lfemur -3.14488 2.94791 -19.558
ltibia 27.1404
lfoot -12.656 10.3519
ltoes -18.7393
893
root 3.48917 18.0885 17.4667 6.1442 2.64935 -2.74069
lowerback 11.8511 2.16483 -5.84271
upperback 1.186 2.2418 2.26275
thorax -5.72205 1.26975 5.3255
lowerneck -20.5794 -2.74154 2.23637
upperneck 14.7039 -3.44488 -4.86374
head 7.77953 -2.01192 -2.41356
rclavicle 5.04274e-014 2.3708e-014
rhumerus -27.9675 -37.6871 -14.4509
rradius 30.8809
rwrist -0.758836
rhand -21.9886 -2.11146
rfingers 7.12502
rthumb 4.41975 -32.0453
lclavicle 5.04274e-014 2.3708e-014
lhumerus -9.48112 35.6297 20.4163
lradius 34.2737
lwrist 15.5766
lhand -22.0235 -4.59245
lfingers 7.12502
lthumb 4.38612 25.3421
rfemur -28.1303 -13.1156 12.9052
rtibia 31.9978
rfoot -6.53107 -18.733
rtoes -10.442
lfemur -2.53942 2.93672 -19.9121
ltibia 26.5483
lfoot -12.5014 10.2558
ltoes -18.7575
894
root 3.49987 18.0832 17.5448 6.11439 2.80985 -2.40564
lowerback 11.8385 2.19086 -5.75033
upperback 1.15664 2.30104 2.45631
thorax -5.75923 1.30158 5.46973
lowerneck -20.4757 -2.80952 2.21148
upperneck 14.626 -3.48862 -5.08704
head 7.73072 -2.05654 -2.48505
rclavicle 1.6847e-014 -6.85807e-015
rhumerus -28.1771 -37.7528 -14.8267
rradius 30.8221
rwrist -0.734782
rhand -22.0533 -2.13077
rfingers 7.12502
rthumb 4.35729 -32.0659
lclavicle 1.6847e-014 -6.85807e-015
lhumerus -9.36467 35.4245 20.5743
lradius 34.3852
lwrist 15.6697
lhand -22.0468 -4.4625
lfingers 7.12502
lthumb 4.36361 25.4725
rfemur -28.565 -13.1129 12.8176
rtibia 31.1965
rfoot -6.13371 -18.8975
rtoes -10.4868
lfemur -1.91586 2.93136 -20.2662
ltibia 25.923
lfoot -12.3464 10.1437
ltoes -18.7718
895
root 3.50944 18.0772 17.6256 6.08866 2.99107 -2.04198
lowerback 11.7948 2.19645 -5.70981
upperback 1.13355 2.32788 2.64512
thorax -5.76987 1.31779 5.6452
lowerneck -20.3371 -2.855 2.23016
upperneck 14.5364 -3.51054 -5.33414
head 7.67176 -2.09021 -2.56758
rclavicle -2.50469e-014 -2.44505e-014
rhumerus -28.3425 -37.7943 -15.2512
rradius 30.7899
rwrist -0.738552
rhand -22.1208 -2.15476
rfingers 7.12502
rthumb 4.29216 -32.0913
lclavicle -2.50469e-014 -2.44505e-014
lhumerus -9.088 35.6446 20.7523
lradius 34.1848
lwrist 15.2631
lhand -21.948 -4.54379
lfingers 7.12502
lthumb 4.45902 25.3893
rfemur -28.9743 -13.113 12.6897
rtibia 30.3926
rfoot -5.70587 -19.0919
rtoes -10.5318
lfemur -1.26413 2.93149 -20.6382
ltibia 25.2631
lfoot -12.1922 10.0014
ltoes -18.8009
896
root 3.51787 18.0703 17.7083 6.06926 3.20201 -1.65699
lowerback 11.7264 2.19368 -5.68515
upperback 1.12271 2.34241 2.82663
thorax -5.75244 1.3271 5.82491
lowerneck -20.2254 -2.89543 2.26951
upperneck 14.459 -3.52729 -5.60668
head 7.62077 -2.12282 -2.66204
rclavicle -3.97569e-016 1.90833e-014
rhumerus -28.523 -37.8937 -15.6474
rradius 30.7659
rwrist -0.724315
rhand -22.176 -2.14836
rfingers 7.12502
rthumb 4.23883 -32.0859
lclavicle -3.97569e-016 1.90833e-014
lhumerus -8.77048 35.9316 20.9623
lradius 33.9552
lwrist 14.8226
lhand -21.8782 -4.59514
lfingers 7.12502
lthumb 4.5264 25.3365
rfemur -29.3624 -13.1338 12.5347
rtibia 29.5962
rfoot -5.26088 -19.3253
rtoes -10.5686
lfemur -0.592099 2.93083 -21.0176
ltibia 24.5706
lfoot -12.0288 9.81893
ltoes -18.8617
897
root 3.52537 18.0625 17.7932 6.05266 3.43829 -1.25227
lowerback 11.6467 2.17757 -5.67929
upperback 1.11379 2.33689 3.00226
thorax -5.72419 1.32655 6.0131
lowerneck -20.145 -2.92003 2.33488
upperneck 14.4179 -3.5245 -5.90662
head 7.587 -2.14758 -2.76908
rclavicle -1.75924e-014 -2.0276e-014
rhumerus -28.6992 -38.0649 -16.0222
rradius 30.7284
rwrist -0.61663
rhand -22.2059 -2.11089
rfingers 7.12502
rthumb 4.20999 -32.049
lclavicle -1.75924e-014 -2.0276e-014
lhumerus -8.49718 36.1675 21.1494
lradius 33.7574
lwrist 14.4229
lhand -21.8268 -4.65309
lfingers 7.12502
lthumb 4.57605 25.2775
rfemur -29.7249 -13.1703 12.3518
rtibia 28.8119
rfoot -4.83427 -19.5931
rtoes -10.6124
lfemur 0.0996238 2.94042 -21.3999
ltibia 23.8566
lfoot -11.8593 9.58923
ltoes -18.9697
898
root 3.53172 18.0539 17.8795 6.04587 3.70992 -0.837163
lowerback 11.5569 2.1145 -5.71435
upperback 1.09744 2.26349 3.16931
thorax -5.68906 1.29346 6.22785
lowerneck -20.0264 -2.88698 2.52859
upperneck 14.3487 -3.46826 -6.27548
head 7.53632 -2.14592 -2.91186
rclavicle 1.70955e-014 1.74931e-014
rhumerus -28.7741 -38.2793 -16.5038
rradius 30.6684
rwrist -0.438048
rhand -22.2329 -2.03883
rfingers 7.12502
rthumb 4.18387 -31.9775
lclavicle 1.70955e-014 1.74931e-014
lhumerus -8.48034 36.2019 21.1493
lradius 33.8009
lwrist 14.2845
lhand -21.8269 -4.55834
lfingers 7.12502
lthumb 4.57592 25.3722
rfemur -30.0657 -13.222 12.152
rtibia 28.0412
rfoot -4.48179 -19.9069
rtoes -10.6727
lfemur 0.78893 2.95351 -21.7719
ltibia 23.1366
lfoot -11.6813 9.30607
ltoes -19.1206
899
root 3.53573 18.0447 17.9665 6.05702 3.99112 -0.431241
lowerback 11.485 2.04637 -5.75824
upperback 1.06777 2.18129 3.33667
thorax -5.67661 1.25736 6.4494
lowerneck -19.956 -2.85647 2.70143
upperneck 14.3292 -3.41289 -6.6199
head 7.51137 -2.14382 -3.04582
rclavicle 8.94531e-015 2.78299e-014
rhumerus -28.8346 -38.5883 -16.9644
rradius 30.5639
rwrist -0.1396
rhand -22.2413 -1.93865
rfingers 7.12502
rthumb 4.17579 -31.8775
lclavicle 8.94531e-015 2.78299e-014
lhumerus -8.51882 36.1583 21.1087
lradius 33.8911
lwrist 14.2017
lhand -21.8299 -4.43085
lfingers 7.12502
lthumb 4.57301 25.4998
rfemur -30.3959 -13.2 11.9471
rtibia 27.2836
rfoot -4.2466 -20.316
rtoes -10.7579
lfemur 1.45349 2.98278 -22.1102
ltibia 22.4242
lfoot -11.502 8.97692
ltoes -19.2797
900
root 3.53746 18.0352 18.0545 6.0873 4.27944 -0.0421508
lowerback 11.4187 1.97012 -5.8009
upperback 1.04638 2.08797 3.50156
thorax -5.65581 1.21518 6.6697
lowerneck -19.987 -2.81698 2.88636
upperneck 14.3308 -3.35092 -6.95495
head 7.51119 -2.13817 -3.18123
rclavicle -2.26615e-014 5.56597e-015
rhumerus -28.846 -38.9124 -17.4821
rradius 30.4593
rwrist 0.131336
rhand -22.281 -1.81592
rfingers 7.12502
rthumb 4.13742 -31.7555
lclavicle -2.26615e-014 5.56597e-015
lhumerus -8.59133 36.1608 21.0359
lradius 34.0258
lwrist 14.1056
lhand -21.7855 -4.37816
lfingers 7.12502
lthumb 4.61586 25.5516
rfemur -30.7138 -13.0918 11.739
rtibia 26.5423
rfoot -4.16911 -20.8175
rtoes -10.8537
lfemur 2.08732 3.02469 -22.4079
ltibia 21.7293
lfoot -11.3242 8.60732
ltoes -19.4589
